<svg xmlns="http://www.w3.org/2000/svg" viewBox="0 0 313.48 211">
  <path fill="#fff" d="M15.5 0h214v112h-214z"/>
  <path d="M36 88.15c5.81 0 8.71-2.61 8.71-8.48V42.39H60v37.28c0 14.44-9.07 22.74-23.94 22.74zm16.37-65.88c4.71 0 7.7 3 7.7 7.67s-3 7.67-7.7 7.67-7.8-2.89-7.8-7.67 3.08-7.67 7.8-7.67zm66.55 65.25h-15.24v-4.24a18.93 18.93 0 01-13.51 5.32C78.48 88.6 70 79.4 70 65s8.52-23.65 20.21-23.65a19 19 0 0113.51 5.41v-4.37h15.24zM104.23 65c0-5.87-3.72-9.39-9.43-9.39s-9.43 3.48-9.43 9.39 3.72 9.38 9.43 9.38 9.43-3.56 9.43-9.38zm27.2-22.61h15.23v4.43A14.65 14.65 0 01158 41.31c6.34 0 10.51 2.8 13 7.13a16.32 16.32 0 0113.42-7.13c12.51 0 17.05 9.75 17.05 21.48v24.73h-15.18v-24.1c0-4.42-2.18-7.85-5.72-7.85-4.08 0-6.53 3.07-6.53 8.48v23.47H158.9v-24.1c0-4.42-2.17-7.85-5.71-7.85-3.9 0-6.53 2.8-6.53 7.67v24.28h-15.23z"/>
  <path fill="#fef300" d="M0 99h245v112H0z"/>
  <path d="M70.25 168.47v2.89c-2.36 8.57-12.17 16.24-24.71 16.24-14.45 0-25.08-9.2-25.08-23.64s10.63-23.65 25.08-23.65c12 0 22.35 7.58 24.71 16.25v2.88h-16c-1.45-3.06-4.63-4.87-8.72-4.87-5.82 0-9.63 3.52-9.63 9.39s3.81 9.38 9.63 9.38c4.09 0 7.27-1.8 8.72-4.87zM77.7 164c0-14.44 10.64-23.65 25.08-23.65s25.08 9.21 25.08 23.65-10.63 23.64-25.08 23.64S77.7 178.4 77.7 164zm15.45 0c0 5.86 3.82 9.38 9.63 9.38s9.64-3.52 9.64-9.38-3.82-9.39-9.64-9.39-9.63 3.48-9.63 9.39zm44.71-22.61h15.26v4.7a18.21 18.21 0 0113.54-5.78c13.9 0 18.45 10.38 18.45 22.84v23.37h-15.27v-23.19c0-5-3-8.76-7.81-8.76-5.46 0-8.73 3.34-8.91 8.94v23h-15.26zm56.06 4.7h6.36v-.91c0-14.44 9.09-22.74 24-22.74v14.26c-5.82 0-8.73 2.62-8.73 8.48v.91h9.73v14.08h-9.73v26.35h-15.27v-26.35h-6.36z"/>
  <circle cx="257.48" cy="91.94" r="56" fill="#056eff" transform="rotate(-13.28 257.545 91.972)"/>
  <path fill="#fff" d="M245.26 91.94a5.89 5.89 0 01-1.42 4.2 5.18 5.18 0 01-4 1.51 4.28 4.28 0 01-3.46-1.51 5.77 5.77 0 01-1.26-3.82V78.21h-9.22v14.22a25.69 25.69 0 00.54 5.38 12.16 12.16 0 001.87 4.42 9.22 9.22 0 003.46 3 11.38 11.38 0 005.27 1.1 10.8 10.8 0 008.18-3.51v2.85h9.23V78.21h-9.23zm34.54-13.73v2.64a11.22 11.22 0 00-3.65-2.45 12.36 12.36 0 00-9.42.17 11.38 11.38 0 00-3.89 2.88 13.08 13.08 0 00-2.56 4.55 20.18 20.18 0 000 11.92 13.18 13.18 0 002.56 4.53 11.38 11.38 0 003.89 2.88 11.86 11.86 0 004.89 1 12.05 12.05 0 004.53-.82 10.69 10.69 0 003.65-2.42v2.58h9.2V78.21zm-1.21 17.93a5.72 5.72 0 01-9.88-4.2 5.58 5.58 0 011.54-4.2 6.51 6.51 0 018.34 0 6.5 6.5 0 010 8.4z"/>
</svg>