<svg xmlns="http://www.w3.org/2000/svg" viewBox="0 0 515 179">
  <path d="M0 67h214v112H0z" fill="#fff"/>
  <path d="M21.63 155.15c5.8 0 8.71-2.61 8.71-8.48v-37.28h15.23v37.28c0 14.44-9.07 22.74-23.94 22.74zM38 89.27c4.72 0 7.71 3 7.71 7.67s-3 7.67-7.71 7.67-7.8-2.89-7.8-7.67 3.04-7.67 7.8-7.67zM104.5 154.52H89.27v-4.24a18.93 18.93 0 01-13.51 5.32c-11.69 0-20.22-9.2-20.22-23.64s8.53-23.65 20.22-23.65a19 19 0 0113.51 5.41v-4.33h15.23zM89.82 132c0-5.87-3.72-9.39-9.43-9.39S71 126.09 71 132s3.71 9.38 9.43 9.38 9.39-3.56 9.39-9.38zM117 109.39h15.23v4.43a14.64 14.64 0 0111.33-5.51c6.35 0 10.52 2.8 13 7.13a16.3 16.3 0 0113.44-7.13c12.51 0 17 9.75 17 21.48v24.73h-15.13v-24.1c0-4.42-2.17-7.85-5.71-7.85-4.08 0-6.53 3.07-6.53 8.48v23.47h-15.14v-24.1c0-4.42-2.18-7.85-5.71-7.85-3.9 0-6.53 2.8-6.53 7.67v24.28H117z"/>
  <path fill="#fef300" d="M203 67h245v112H203z"/>
  <path d="M273.26 136.47v2.89c-2.37 8.57-12.18 16.24-24.72 16.24-14.45 0-25.08-9.2-25.08-23.64s10.63-23.65 25.08-23.65c12 0 22.35 7.58 24.72 16.25v2.88h-16c-1.45-3.06-4.63-4.87-8.72-4.87-5.82 0-9.63 3.52-9.63 9.39s3.81 9.38 9.63 9.38c4.09 0 7.27-1.8 8.72-4.87zM280.7 132c0-14.44 10.64-23.65 25.08-23.65s25.08 9.21 25.08 23.65-10.63 23.64-25.08 23.64S280.7 146.4 280.7 132zm15.45 0c0 5.86 3.82 9.38 9.63 9.38s9.64-3.52 9.64-9.38-3.82-9.39-9.64-9.39-9.63 3.48-9.63 9.39zM340.86 109.39h15.26v4.7a18.21 18.21 0 0113.54-5.78c13.9 0 18.45 10.38 18.45 22.84v23.37h-15.27v-23.19c0-5-3-8.76-7.81-8.76-5.46 0-8.73 3.34-8.91 8.94v23h-15.26zM396.92 114.09h6.36v-.91c0-14.44 9.09-22.74 24-22.74v14.26c-5.82 0-8.73 2.62-8.73 8.48v.91h9.73v14.08h-9.73v26.35h-15.27v-26.35h-6.36z"/>
  <circle cx="459" cy="56" r="56" fill="#056eff" />
  <path d="M446.78 56a5.85 5.85 0 01-1.43 4.2 5.16 5.16 0 01-4 1.51 4.26 4.26 0 01-3.46-1.51 5.77 5.77 0 01-1.26-3.82V42.27h-9.23v14.22a25.61 25.61 0 00.55 5.38 12.16 12.16 0 001.87 4.42 9.24 9.24 0 003.46 3 11.48 11.48 0 005.27 1.1 11.17 11.17 0 004.53-.91 11 11 0 003.65-2.61v2.86H456V42.27h-9.23zM481.32 42.27v2.64a11.22 11.22 0 00-3.65-2.45 11.87 11.87 0 00-4.53-.85 11.7 11.7 0 00-4.89 1 11.52 11.52 0 00-3.9 2.88A13.16 13.16 0 00461.8 50a20.18 20.18 0 000 11.92 13.16 13.16 0 002.55 4.53 11.52 11.52 0 003.9 2.88 11.7 11.7 0 004.89 1 12.05 12.05 0 004.53-.83 10.69 10.69 0 003.65-2.42v2.59h9.23v-27.4zm-1.21 17.93a6.5 6.5 0 111.54-4.2 5.66 5.66 0 01-1.54 4.2z" fill="#fff"/>
</svg>